<?xml version="1.0" encoding="utf-8"?>
<!-- Generator: Adobe Illustrator 16.0.0, SVG Export Plug-In . SVG Version: 6.00 Build 0)  -->
<!DOCTYPE svg PUBLIC "-//W3C//DTD SVG 1.1//EN" "http://www.w3.org/Graphics/SVG/1.1/DTD/svg11.dtd">
<svg version="1.1" id="Capa_1" xmlns="http://www.w3.org/2000/svg" xmlns:xlink="http://www.w3.org/1999/xlink" x="0px" y="0px"
	 width="100px" height="100px" viewBox="0 0 100 100" enable-background="new 0 0 100 100" xml:space="preserve">
<g>
	<path fill-rule="evenodd" clip-rule="evenodd" d="M88.979,100c-2.065-2.107-4.116-4.229-6.199-6.318
		c-5.81-5.826-11.634-11.639-17.45-17.458c-1.795-1.796-1.924-3.451-0.483-5.469c-2.799-2.772-5.59-5.536-8.468-8.387
		c-0.394,0.277-0.991,0.709-1.599,1.125C35.153,76.927,8.665,67.804,1.524,45.112c-0.638-2.027-0.892-4.176-1.326-6.268
		C0.137,38.549,0.066,38.254,0,37.959c0-2.041,0-4.082,0-6.122c0.085-0.527,0.181-1.053,0.255-1.582
		c2.046-14.727,12.742-26.293,27.3-29.501C28.904,0.457,30.273,0.249,31.633,0c2.108,0,4.218,0,6.326,0
		c1.433,0.256,2.878,0.46,4.297,0.778c14.572,3.26,25.205,14.766,27.164,29.525c1.247,9.396-1.075,17.916-6.689,25.545
		c-0.281,0.382-0.571,0.757-0.809,1.07c2.785,2.789,5.54,5.547,8.341,8.352c0.367-0.21,0.807-0.547,1.302-0.728
		c1.671-0.612,3.034-0.045,4.237,1.164c3.717,3.734,7.451,7.452,11.177,11.178c4.11,4.11,8.219,8.223,12.332,12.33
		c0.212,0.212,0.459,0.389,0.689,0.582c0,0.408,0,0.816,0,1.225c-0.856,0.816-1.732,1.614-2.565,2.454
		c-2.148,2.165-4.277,4.349-6.414,6.525C90.34,100,89.66,100,88.979,100z M34.922,7.332C19.702,7.301,7.385,19.526,7.328,34.718
		c-0.058,15.286,12.263,27.69,27.52,27.705c15.182,0.016,27.548-12.354,27.574-27.577C62.445,19.704,50.109,7.361,34.922,7.332z"/>
</g>
</svg>
